<?xml version="1.0" encoding="UTF-8"?><svg id="Layer_1" xmlns="http://www.w3.org/2000/svg" viewBox="0 0 64 64"><path d="M32,0C14.33,0,0,14.33,0,32s14.33,32,32,32,32-14.33,32-32S49.67,0,32,0ZM44.8,16.65l2.58-.04c.36,0,.87.36.87.76v8.06c0,.17-.12.49-.23.56l-.62.41,1.09.11c.28.03.59.04.69.14.12.12.26.5.26.69l-.04,2.71-5.3-4.89-.05-7.63c0-.41.36-.85.75-.86ZM40.45,18.99l1.56-.02c.23,0,.58.36.58.59l-.03,3.51h-2.71s-.05-3.5-.05-3.5c0-.24.42-.59.64-.59ZM21.69,18.97h1.57c.23,0,.6.37.6.59v3.5s-2.77.01-2.77.01l-.04-3.49c0-.28.38-.62.65-.62ZM22.25,23.87h19.27s1.68,1.73,1.68,1.73h-22.87s1.92-1.73,1.92-1.73ZM43.8,26.12l2.34,2.25-28.53-.02c.82-.86,1.5-1.51,2.35-2.24h23.84ZM14.69,26.61c.14-.11.53-.14.87-.17l-.02-9.03c0-.46.6-.79.95-.79h2.26c.74,0,.97.51.97,1.13v7.31s-5.23,4.87-5.23,4.87l-.12-2.62c.07-.23.17-.6.32-.71ZM16.97,28.89l29.71-.02c1.01.84,1.9,1.58,2.83,2.55H14.15s2.82-2.53,2.82-2.53ZM13.58,31.92h36.67s2.9,2.67,2.9,2.67H10.71c.85-1.05,1.86-1.75,2.88-2.67ZM9.69,35.61h44.46s.02,3.67.02,3.67h-3.38s-.02,4.21-.02,4.21c-1.4.13-2.66-.25-4.01-.84l-.06-3.69h-29.6s-.06,3.59-.06,3.59c-1.24.79-2.6,1.05-4.06.96l-.02-4.23-3.29-.02.03-3.66ZM51.69,46.28c-2.82.93-5.82.71-8.39-.92-3.26,2.56-8.36,2.72-11.54.22-3.33,2.55-8.23,2.35-11.47-.12-3.29,2.28-8.71,1.71-11.39-1.3,3.83,1.2,8.37.63,11.31-2.06,2.33,2.38,5.85,2.67,8.84,1.83,2.24-.63,2.28-2.24,3.73-.93,2.95,2.15,7.77,1.55,10.56-.83,3.4,2.74,7.75,3.14,11.77,1.72-.84,1.3-2.08,1.93-3.42,2.4Z"/></svg>