<?xml version="1.0" encoding="UTF-8"?><svg id="Layer_1" xmlns="http://www.w3.org/2000/svg" viewBox="0 0 64 64"><polygon points="30.32 24.25 27.81 24.04 26.28 26.11 30.25 26.39 30.32 24.25"/><polygon points="34.34 24.68 31.35 24.38 31.28 26.5 35.27 26.75 34.34 24.68"/><path d="M32,0C14.33,0,0,14.33,0,32s14.33,32,32,32,32-14.33,32-32S49.67,0,32,0ZM12.4,15.29c9.98-2.63,20.53-3.11,30.77-1.71,2.91.4,5.63,1.04,8.46,1.68,2.71,1.29,1.94,2.84,1.96,5.68H10.44c.14-2.52-.78-4.55,1.96-5.65ZM19.17,37.2c.02-.53-.01-1.05.15-1.37.24-.48.84-.75,1.2-.65.56.16.78.6.82,1.15l.06.87h21.69c-.33-1.4,1.01-2.13,1.48-2.03.21.05.6.42.62.64l.09,1.39h3.74s0-4.19,0-4.19c-.46,0-.94-.07-1.06-.48-.04-.16.08-.63.24-.66l.81-.17.02-9.57,2.22-.02.06,10.33.45-1.05c.48-.11,1.04-.11,1.65-.05l.03,3.17c-.52.15-1.16.14-1.71.02-.15-.48-.13-.77-.43-1.18l-.04,10.99h-2.21s-.01-5.02-.01-5.02l-3.75-.02-.06.87c-.01.2-.21.62-.4.71-.57.26-1.83-.54-1.82-1.56h-21.6c.07.95-.88,1.57-1.42,1.62-.2.02-.67-.25-.69-.45l-.11-1.18h-3.9s-.06,5.05-.06,5.05h-2.16s-.05-11.03-.05-11.03c-.66.29-.15.87-.59,1.15-.45.15-1.04.14-1.62.1l-.02-3.18c.52-.15,1.14-.15,1.68.02.2.35.18.69.55,1.08l.07-10.36c.8-.03,1.46-.03,2.18.02l.02,9.6c.47.03.79.08.92.21.13.14.18.57.08.73-.14.22-.5.29-.98.29l-.04,4.22h3.96ZM37.56,30.45c3.13.89,3.03,1.03,6.54.81.24-.02.55-.06.69.01.6.28.75,2.36-.81,3.56-.78.6-1.79,1.01-2.83,1.06-4.86.27-9.6.24-14.53-.02-1.78-.09-3.36-.41-4.96-.93-.59-.19-1.04-.56-1.44-1-.51-.55-1.08-1.07-1.41-1.76,4.4-.07,8.87.4,13.1,1.14.13.02.37-.23.32-.31-.41-.58-4.67-1.15-5.61-1.23-2.75-.21-5.36-.1-8.17,0-.74-.95-1.3-1.99-1.59-3.28,7.51-.22,13.41-.13,20.7,1.94ZM18.16,27.8l6.54-1.64,2.59-3.32,6.95.71c.87.09,1.69.3,2.23,1.08.71,1.02,1.36,2.05,2.02,3.15.38.63,1.63.3,3.1,1.3l.06-1.43c.03-.56.36-1.08,1.01-1.08h3.55c.43-.01.76.4.76.81v2.88c-.01.27-.47.65-.77.64-1.73-.05-3.46.06-5.18-.15-5.58-2.09-11.37-3.1-17.36-2.97-1.87.04-3.56.18-5.49.03ZM50.8,50.31c-1.97.71-3.99.56-5.82-.54-1.97,1.32-4.26,1.69-6.51,1.1l-1.86-.94c-2.87,1.68-6.39,1.68-9.22,0-2.58,1.74-5.81,1.54-8.34-.16-1.98,1.19-4.21,1.27-6.26.31-.79-.39-1.61-.85-1.92-1.75,2.49,1.08,5.26.86,7.54-.51.44-.27.74-.22,1.17.08,1.9,1.36,5.38,1.64,7.3-.08.33-.04.89.09,1.21.26,2.56,1.28,5.39,1.24,7.89-.08.68-.36,1.16-.08,1.74.25,2.09,1.19,4.73.97,6.71-.34.27-.18.61-.4.94-.19,2.45,1.52,5.28,1.76,7.92.58-.47,1.08-1.45,1.64-2.48,2.02ZM52.69,46.37c-2.3,1.41-5.2,1.49-7.54.11-1.92,1.22-4.03,1.6-6.2,1.18-.81-.25-1.52-.58-2.3-1.03-2.92,1.59-6.43,1.71-9.36,0-2.59,1.64-5.87,1.62-8.51-.17-2.22,1.19-4.81,1.37-7.08.16-.72-.38-1.35-.95-1.64-1.68,2.57,1.07,5.43.99,7.81-.37,1.71-.97.63.39,3.68.92,4.73.81,4.58-1.77,6.3-.87,2.57,1.35,5.58,1.38,8.14-.02.27-.15.93-.25,1.17-.08,1.4.96,3.01,1.33,4.67,1.05,3.4-.57,2.66-1.85,4.03-1.04,2.44,1.43,5.45,1.5,8.05.34-.18.65-.67,1.14-1.24,1.49Z"/></svg>