<?xml version="1.0" encoding="UTF-8"?><svg id="Layer_1" xmlns="http://www.w3.org/2000/svg" viewBox="0 0 64 64"><polygon points="51.86 27.87 51.3 27.86 51.29 28.58 51.85 28.62 51.86 27.87"/><polygon points="51.85 27.61 51.85 26.81 51.3 26.79 51.32 27.59 51.85 27.61"/><polygon points="49.78 27.75 49.8 28.47 50.37 28.47 50.31 27.76 49.78 27.75"/><polygon points="50.54 24.69 51.12 24.67 51.09 24 50.55 23.96 50.54 24.69"/><polygon points="51.86 22.78 51.86 22.16 51.3 22.16 51.33 22.79 51.86 22.78"/><polygon points="51.11 25.58 51.1 24.93 50.52 24.93 50.54 25.54 51.11 25.58"/><path d="M50.84,22.78c.16,0,.26-.09.27-.28.01-.28-.04-.42-.27-.42-.18,0-.29.11-.29.32,0,.24.07.39.29.39Z"/><polygon points="53.95 28.79 53.92 28.07 53.36 28.04 53.37 28.74 53.95 28.79"/><polygon points="53.39 27.76 53.91 27.8 53.91 27.07 53.38 27.02 53.39 27.76"/><polygon points="53.91 26.01 53.39 25.99 53.39 26.7 53.92 26.76 53.91 26.01"/><polygon points="51.34 25.58 51.87 25.6 51.87 24.99 51.33 24.96 51.34 25.58"/><polygon points="51.85 23.07 51.31 23.06 51.3 23.74 51.85 23.75 51.85 23.07"/><path d="M51.85,24.65v-.56c-.1-.08-.47-.12-.5,0-.04.13-.05.41,0,.53.05.12.42.1.5.03Z"/><polygon points="51.33 26.54 51.84 26.56 51.81 25.86 51.33 25.84 51.33 26.54"/><polygon points="49.56 23.64 49.55 22.93 48.94 22.92 48.96 23.63 49.56 23.64"/><polygon points="49.53 26.64 48.94 26.62 48.92 27.42 49.58 27.43 49.53 26.64"/><polygon points="48.95 26.37 49.5 26.38 49.49 25.75 48.94 25.69 48.95 26.37"/><polygon points="48.94 24.56 49.53 24.57 49.51 23.92 48.95 23.88 48.94 24.56"/><polygon points="49.51 24.86 48.95 24.81 48.93 25.47 49.53 25.48 49.51 24.86"/><polygon points="45.95 27.47 45.95 28.09 46.59 28.15 46.57 27.46 45.95 27.47"/><polygon points="45.93 25.44 45.35 25.39 45.32 26.08 45.97 26.11 45.93 25.44"/><path d="M45.49,27.36c-.25.01-.2.68-.05.72.08.02.31.04.36-.03.04-.06.03-.18.03-.38,0-.2-.12-.31-.34-.3Z"/><polygon points="49.78 26.41 50.3 26.45 50.3 25.78 49.78 25.75 49.78 26.41"/><path d="M53.88,25.72c.08-.05.08-.45-.03-.54-.11-.09-.48-.06-.48.06,0,.12,0,.35.06.43.06.08.29.06.45.05Z"/><polygon points="49.76 26.67 49.78 27.48 50.34 27.5 50.29 26.7 49.76 26.67"/><path d="M50.3,22.63c.04-.13.07-.39,0-.48-.06-.1-.4-.1-.48-.01-.08.08-.06.38,0,.47.06.12.44.15.48.03Z"/><polygon points="49.76 23.96 49.76 24.6 50.3 24.66 50.31 23.96 49.76 23.96"/><polygon points="49.54 22.64 49.54 22.04 48.96 22.04 48.98 22.65 49.54 22.64"/><path d="M50.28,25.49c.02-.17.03-.45.01-.58-.22-.04-.51-.03-.53.09-.02.13-.04.43.06.48.09.04.37.04.45,0Z"/><polygon points="50.32 23.7 50.3 22.97 49.76 22.96 49.77 23.7 50.32 23.7"/><polygon points="55.77 25.26 55.76 25.86 56.28 25.86 56.25 25.25 55.77 25.26"/><path d="M46.23,23.76c-.04.14-.11.63.02.64h.39c.03-.2.04-.49-.05-.62-.04-.05-.34-.08-.36-.01Z"/><polygon points="54.17 28.1 54.19 28.83 54.73 28.84 54.7 28.13 54.17 28.1"/><polygon points="54.69 26.04 54.16 26.03 54.16 26.76 54.73 26.81 54.69 26.04"/><polygon points="54.71 27.1 54.16 27.08 54.16 27.82 54.72 27.88 54.71 27.1"/><path d="M55.86,23.03c.1,0,.28.01.35-.01.04-.01.12-.68-.05-.66l-.35.03c-.06,0-.12.63.04.65Z"/><polygon points="53.94 24.86 53.92 24.18 53.38 24.18 53.39 24.85 53.94 24.86"/><polygon points="56.26 26.15 55.77 26.12 55.76 26.87 56.26 26.88 56.26 26.15"/><path d="M56.17,23.34c-.09,0-.34-.04-.36.04l-.04.31c-.01.09-.02.29.05.33.07.04.27.05.36.05.12,0,.14-.71,0-.73Z"/><path d="M9.27,31.26l-.02,1.6.63-.02-.03-1.58c-.15-.05-.4-.05-.58,0Z"/><path d="M13,36.21c.09-.12.22-.96.08-1.41-.04-.11-.44-.08-.44.04,0,.41.02.93.04,1.28,0,.1.27.15.33.08Z"/><path d="M12.57,41.16c-.31.08-.52.42-.53.71,0,.29.16.66.49.77.58.18,1-.28.99-.77,0-.48-.43-.85-.96-.72Z"/><polygon points="50.56 26.74 50.54 27.54 51.11 27.55 51.08 26.75 50.56 26.74"/><polygon points="48.93 27.66 48.93 28.39 49.54 28.42 49.54 27.72 48.93 27.66"/><polygon points="51.08 25.81 50.55 25.8 50.55 26.48 51.1 26.52 51.08 25.81"/><polygon points="50.54 27.81 50.57 28.54 51.09 28.55 51.07 27.83 50.54 27.81"/><polygon points="56.25 24.32 55.78 24.31 55.76 24.97 56.27 24.95 56.25 24.32"/><polygon points="54.77 22.34 54.2 22.31 54.19 22.94 54.77 22.95 54.77 22.34"/><polygon points="56.26 27.21 55.75 27.18 55.75 27.94 56.25 27.96 56.26 27.21"/><polygon points="54.2 23.94 54.8 23.97 54.78 23.24 54.2 23.23 54.2 23.94"/><path d="M55.08,28.9h.39c.04-.22.06-.57-.06-.69-.07-.06-.33-.1-.4-.04-.14.12-.11.73.07.73Z"/><polygon points="53.94 23.18 53.39 23.18 53.39 23.88 53.95 23.9 53.94 23.18"/><polygon points="53.95 22.27 53.41 22.27 53.41 22.9 53.98 22.94 53.95 22.27"/><path d="M54.27,25.78c.12.02.4.09.44-.02.06-.15.06-.4,0-.51-.06-.1-.46-.1-.53,0-.1.16-.05.5.08.52Z"/><polygon points="54.76 24.24 54.18 24.2 54.17 24.91 54.78 24.92 54.76 24.24"/><polygon points="55.55 24 55.55 23.29 55.02 23.27 55.02 24.02 55.55 24"/><polygon points="55.54 22.35 55.04 22.34 55.03 23.01 55.55 23.01 55.54 22.35"/><polygon points="56.24 28.24 55.72 28.23 55.72 28.96 56.25 28.97 56.24 28.24"/><path d="M55.53,25.74c0-.15,0-.36-.03-.46-.03-.1-.39-.1-.47-.04-.09.11-.08.45,0,.56.16.07.5.06.51-.06Z"/><polygon points="55.54 26.86 55.52 26.07 54.95 26.08 54.96 26.84 55.54 26.86"/><path d="M55.5,27.89v-.74s-.55-.04-.55-.04l.02.79c.18.01.4.02.53-.01Z"/><polygon points="55.55 24.29 55.01 24.25 55.01 24.96 55.55 24.97 55.55 24.29"/><polygon points="51.09 23.02 50.56 23.02 50.54 23.73 51.12 23.73 51.09 23.02"/><polygon points="42.48 26.83 43 26.85 42.97 26.08 42.49 26.08 42.48 26.83"/><polygon points="42.29 25.79 42.26 25.08 41.65 25.07 41.66 25.77 42.29 25.79"/><polygon points="42.24 23.51 41.66 23.51 41.66 24.13 42.26 24.14 42.24 23.51"/><polygon points="41.43 21.66 40.92 21.65 40.88 22.21 41.45 22.25 41.43 21.66"/><polygon points="41.44 24.11 41.42 23.49 40.87 23.49 40.9 24.07 41.44 24.11"/><polygon points="41.42 22.52 40.89 22.5 40.88 23.17 41.45 23.2 41.42 22.52"/><polygon points="42.27 23.25 42.23 22.57 41.66 22.56 41.67 23.24 42.27 23.25"/><path d="M42.86,27.14l-.32.03c-.07,0-.06.23-.06.32,0,.24.08.34.3.33.15,0,.23-.13.22-.33,0-.13-.05-.36-.14-.35Z"/><path d="M42.77,23.53c-.17-.01-.33.09-.32.26,0,.15,0,.38.08.39l.38.02c.07,0,.08-.21.08-.32.01-.17-.09-.34-.23-.35Z"/><path d="M42.56,24.43c-.1,0-.11.34-.02.38.09.04.31.06.4.03.08-.03.09-.26.03-.33-.06-.07-.29-.09-.42-.08Z"/><path d="M41.34,24.79c.11-.03.11-.41,0-.43-.09-.02-.32-.02-.44,0-.1.02-.1.34-.02.4.08.06.32.07.45.04Z"/><path d="M42.61,23.32c.08,0,.33,0,.35-.07.03-.14.04-.46-.02-.59-.04-.09-.35-.09-.42-.02-.12.13-.12.66.09.68Z"/><path d="M42.64,22.37c.07.02.32-.01.33-.09.03-.13.05-.53-.07-.56-.09-.02-.34-.04-.4,0-.07.05-.13.59.14.64Z"/><path d="M41.81,22.28c.17.03.45.01.45-.09,0-.15,0-.35-.02-.45-.01-.1-.37-.07-.47-.03-.14.06-.13.54.04.57Z"/><path d="M41.67,24.42c-.01.07-.02.27,0,.34,0,.08.33.15.57.03.06-.03,0-.3-.04-.35-.09-.1-.5-.14-.53-.01Z"/><path d="M50.25,34.56c-.7-.02-1.25.41-1.56,1-.49.91-.49,2,.11,2.86.31.44.79.72,1.27.75.5.02,1.01-.16,1.39-.57.71-.77.86-1.92.45-2.86-.3-.68-.92-1.15-1.66-1.17ZM50.81,37.82c-.28.21-.66.27-.95.11-.42-.23-.56-.69-.53-1.13.03-.41.22-.82.68-1.01.3-.12.65.01.88.21.48.42.38,1.49-.08,1.83Z"/><path d="M50.5,36.35c-.1-.04-.36-.02-.43.05-.27.25-.33.81.09,1.01.12.06.38-.04.45-.13.26-.34.14-.84-.1-.92Z"/><polygon points="34.12 35.54 34.11 36.76 35.85 36.51 35.82 35.32 34.12 35.54"/><polygon points="57.15 32.01 57.21 33.09 58.64 32.86 58.62 31.78 57.15 32.01"/><path d="M26.41,33.61c-1.75-.34-3.44-.78-5.23-.86l-1.49-.07c-.09,0-.25.02-.26.09-.06.44,1.63.56,1.95.6.13-.18.34-.26.57-.21l6.75,1.39,3.39.75c.07-.24.07-.38.01-.57l-5.7-1.12Z"/><path d="M32,0C14.33,0,0,14.33,0,32s14.33,32,32,32,32-14.33,32-32S49.67,0,32,0ZM11.8,33.83c.29-.24,1.11-.23,1.42.01.54.43-.02,1.8.04,1.44-.13.72.05,1.48-.04,2.29-.03.26.2.41.22.54.08.52.04,1.14.04,1.72-.55-.04-1.06-.05-1.67.08l-.2-5.43c0-.25.04-.51.19-.64ZM8.35,30.66c0-.52.78-.6,1.12-.6.56,0,.99.26,1.03.8l-.03,4.34-2.15.03.03-4.57ZM5.51,38.1c-.74.03-1.25-.49-1.24-1.2,0-.57.33-1.04.93-1.11l.67-.08.04-1.62c0-.42.5-.59.85-.56.23.02.44.05.59.18.1.09.19.35.19.52v1.37s3.88-.05,3.88-.05l.02.63-3.42.11c-.1.15-.09.38-.02.59l2.44-.11c.35-.02.64-.09,1-.18l.03,1.33-3.93.12-2.03.08ZM10.41,39.17c-.03.19-.44.34-.63.35l-1.15.02c-.22,0-.59-.19-.59-.44v-.87s2.41-.07,2.41-.07c0,.35.02.66-.04,1.02ZM14.68,42.26c-.16,1.04-1.12,1.75-2.27,1.55-1.08-.19-1.74-1.16-1.58-2.17.16-1.04,1.12-1.65,2.21-1.54,1.07.1,1.8,1.09,1.64,2.16ZM52.77,39.44c-.78,1.22-2.04,1.93-3.46,1.77l-2.11-.24c-2.03-.23-3.13-1.87-3.31-3.83-.34-.08-.77-.14-1.07-.26-.26-.11-.41-.23-.72-.18l-5.5,1.03-3.44.62-6.38-1.26-4.03.3-9.08.52v-1.31s2.53-.19,2.53-.19c.09,0,.21-.14.26-.2.05-.06,0-.34-.12-.33l-2.69.17c-.02-.24-.02-.42-.01-.63,1.36-.1,2.62-.21,3.95-.22.52,0,1.01.21,1.55.08l-4.64-.97c-.3-.06-.45-.25-.46-.55l-.05-3.18c0-.36.18-.44.52-.49l10.33-1.35,9.34-1.23,4.43-.59v-6.42c.02-.3.44-.37.68-.35l10.95.52,7.02.36c.26.01.4.27.4.51v8.72s-2.56.3-2.56.3l-6.37-.68-5.45-.58-10.66,1.41-10.28,1.34-6.65-1.11c-.13.04-.19.39-.13.53,2.14.37,4.22.68,6.39.8.5.03.95.04,1.43.14l4.28.82,3.14.62,2.67.55,5.01-.74,5.9-.87c-.5.62-2.31,3.46-.87,3.63l2.18.32c.39.06.86-.14.95-.55.24-1.15.7-2.25,1.59-3.04.33-.3.79-.51,1.22-.64,1.26-.39,2.56.08,3.32,1.16,1.13,1.62,1.02,4.14,0,5.76ZM47.2,32.16l1.94-.39c.59-.12,1.14-.36,1.79,0-.07.04-.28.11-.35.1-2.32-.35-3.94,1.76-4.39,3.86-.04.21-.22.4-.44.36l-2.15-.39c.27-1.51,1.25-2.69,2.26-3.8l1.14.34-.61.74c.47-.04.64-.46.81-.82ZM45.33,31.52l-10.86,1.46-3,.35c-.23.03-.47.09-.67-.07l4.4-.61,12.37-1.65c1.53-.2,2.95-.37,4.46-.49.26-.02.5-.04.74-.01-.32.09-.58.15-.89.19l-6.56.82ZM27.84,32.52c-.48.06-.9.1-1.34.03l2.66-.38,11.43-1.5,5.19-.59c.6-.07,1.19-.2,1.74-.1l-13.58,1.8-6.11.73ZM59.39,33.78l-5.58,1c-.37-1.36-1.18-2.38-2.6-2.95l4.82-.75,2.71-.45-.58-.31,1.21.2c.15.03.35.33.35.48v2.3c0,.15-.13.44-.34.47Z"/><path d="M40.34,24.06c.16,0,.26-.14.25-.32-.01-.14-.03-.28-.1-.32s-.32-.07-.35,0c-.03.06-.04.19-.05.32-.02.19.08.32.26.32Z"/><path d="M40.17,22.2h.35c.05,0,.16-.57-.11-.61-.14-.02-.33.09-.32.22.01.14,0,.38.08.38Z"/><path d="M40.43,22.44c-.08,0-.32,0-.32.07v.3c-.02.09,0,.3.07.33s.27.03.34,0c.06-.03.13-.67-.1-.7Z"/><polygon points="40.57 26.93 40.07 26.87 40.06 27.55 40.58 27.58 40.57 26.93"/><path d="M40.57,24.62c.01-.11,0-.29-.07-.35-.06-.05-.29-.05-.36-.02-.11.06-.07.37-.04.52.28-.03.44-.06.46-.16Z"/><polygon points="40.54 25.94 40.06 25.92 40.06 26.63 40.59 26.68 40.54 25.94"/><path d="M40.49,25.68c.1,0,.13-.73-.06-.72l-.3.02c-.07,0-.07.67,0,.68.09.01.28.02.36.02Z"/><polygon points="44.51 27.01 45.08 27.07 45.07 26.32 44.51 26.27 44.51 27.01"/><path d="M46.6,23.5c.08-.05.15-.74-.05-.73l-.3.02c-.05,0-.13.62-.02.7.07.05.3.06.37,0Z"/><polygon points="47.39 28.22 47.39 27.53 46.81 27.49 46.82 28.2 47.39 28.22"/><path d="M46.59,26.12c.04-.17.04-.5.02-.67h-.37s-.12.45-.01.69c.04.08.35.06.37-.03Z"/><path d="M46.31,22.54h.3c.09,0,.16-.66-.07-.67-.08,0-.29,0-.3.08l-.03.28c0,.08.02.31.1.31Z"/><path d="M45.97,22.38c0-.14,0-.36-.03-.46s-.34-.08-.48-.05c-.16.03-.14.56.02.59.21.04.49.02.49-.08Z"/><polygon points="45.35 24.57 45.34 25.06 45.98 25.15 45.95 24.63 45.35 24.57"/><path d="M45.32,26.33l.04.8c.23,0,.42-.01.57,0l.65.06c.03-.19.05-.54,0-.72-.03-.1-.4-.11-.42-.02l-.15.65c-.09-.28-.09-.43-.11-.73l-.59-.04Z"/><polygon points="46.87 23.8 46.87 24.45 47.4 24.44 47.39 23.83 46.87 23.8"/><polygon points="47.39 25.57 46.84 25.52 46.83 26.17 47.39 26.22 47.39 25.57"/><polygon points="47.39 22.54 47.41 21.94 46.88 21.92 46.89 22.56 47.39 22.54"/><path d="M47.4,25.19c0-.15.03-.4-.07-.46-.08-.05-.35-.06-.43-.01-.13.07-.12.49.01.54.17.07.48.04.48-.08Z"/><polygon points="47.4 27.23 47.39 26.49 46.83 26.46 46.84 27.22 47.4 27.23"/><polygon points="47.4 22.87 46.9 22.82 46.87 23.54 47.39 23.54 47.4 22.87"/><polygon points="45.35 23.43 45.94 23.47 45.97 22.77 45.35 22.74 45.35 23.43"/><path d="M42.92,25.1c-.08-.01-.28,0-.36,0-.13.03-.12.7,0,.7h.36c.1.01.11-.69,0-.71Z"/><polygon points="45.07 27.33 44.49 27.29 44.48 27.97 45.09 28.03 45.07 27.33"/><path d="M41.71,27.07c-.03.18-.03.42,0,.62l.54.03c.04-.23.06-.53-.04-.59-.1-.05-.35-.08-.49-.07Z"/><polygon points="41.42 25.06 40.84 25.04 40.85 25.7 41.42 25.77 41.42 25.06"/><polygon points="40.87 26.7 41.43 26.76 41.42 26.01 40.88 25.99 40.87 26.7"/><polygon points="42.25 26.06 41.66 26.03 41.66 26.77 42.26 26.8 42.25 26.06"/><polygon points="40.88 26.98 40.87 27.62 41.45 27.65 41.44 27.05 40.88 26.98"/><polygon points="45.93 23.73 45.33 23.72 45.31 24.34 45.95 24.38 45.93 23.73"/><path d="M45,25.04c.14-.02.1-.5-.05-.51-.19-.02-.44,0-.45.1,0,.11,0,.29.02.37.02.08.3.06.47.04Z"/><polygon points="44.53 22.7 44.53 23.4 45.12 23.42 45.09 22.72 44.53 22.7"/><path d="M44.63,22.42c.13,0,.4.04.44-.07.05-.13.06-.43-.04-.5-.09-.06-.43-.05-.47.05-.07.15-.06.52.07.52Z"/><path d="M46.45,24.63c-.13.01-.25.13-.24.26,0,.22.07.32.24.34.12.01.2-.07.21-.29,0-.18-.11-.32-.21-.31Z"/><path d="M45.08,24.25c.05-.17.06-.52-.06-.55-.1-.03-.36-.04-.46-.02-.04.13-.04.45.01.57.05.12.48.13.51,0Z"/><polygon points="45.05 25.31 44.53 25.24 44.5 26.01 45.09 26.07 45.05 25.31"/></svg>